<svg xmlns="http://www.w3.org/2000/svg" xml:space="preserve" width="593.483" height="213.417" viewBox="0 0 157.026 56.467"><path d="M12.624 91.95H169.65v56.467H12.624z" style="fill:#fff;fill-opacity:1;stroke:none;stroke-width:.659146;stroke-linecap:round;stroke-linejoin:miter;stroke-dasharray:none;stroke-opacity:1" transform="translate(-12.624 -91.95)"/><path d="M18.787 97.833v43.606h26.334v-9.343h34.06v-24.92H45.12v-9.343zm84.717 0v43.606h26.334s.012-9.367 9.38-9.343h24.679v-24.92h-24.678c-10.222-.185-9.381-9.343-9.381-9.343z" style="fill:#ddd;fill-opacity:1;stroke:#000;stroke-width:.79375;stroke-linecap:round;stroke-linejoin:miter;stroke-dasharray:none;stroke-opacity:1" transform="translate(-12.624 -91.95)"/><path d="M20.717 119.636h56.828m-56.828 19.286h20.005c5.61-.01.135-9.52 6.63-9.512h30.193" style="fill:none;stroke:#ff1690;stroke-width:.79375;stroke-linecap:round;stroke-linejoin:miter;stroke-dasharray:none;stroke-opacity:1" transform="translate(-12.624 -91.95)"/><path d="M20.717 134.478h17.855c5.61-.01 3.12-7.428 9.615-7.42h29.358m-56.828-2.797h18.13c5.61-.01 6.658-2.31 13.153-2.302h25.545" style="fill:none;stroke:#ff1690;stroke-width:.79375;stroke-linecap:round;stroke-linejoin:miter;stroke-dasharray:none;stroke-opacity:1" transform="translate(-12.624 -91.95)"/><path d="M20.717 129.667h16.988c5.61-.01 5.175-5.18 11.67-5.172h28.17M20.717 100.35h20.005c5.61.01.135 9.52 6.63 9.512h30.193" style="fill:none;stroke:#ff1690;stroke-width:.79375;stroke-linecap:round;stroke-linejoin:miter;stroke-dasharray:none;stroke-opacity:1" transform="translate(-12.624 -91.95)"/><path d="M20.717 104.794h17.855c5.61.01 3.12 7.428 9.615 7.42h29.358m-56.828 2.797h18.13c5.61.01 6.658 2.31 13.153 2.302h25.545" style="fill:none;stroke:#ff1690;stroke-width:.79375;stroke-linecap:round;stroke-linejoin:miter;stroke-dasharray:none;stroke-opacity:1" transform="translate(-12.624 -91.95)"/><path d="M20.717 109.605h16.988c5.61.01 5.175 5.18 11.67 5.172h28.17m27.786 4.839h56.828m-56.828 19.306h14.423c10.63-.02 9.208-9.526 20.942-9.512h21.463" style="fill:none;stroke:#ff1690;stroke-width:.79375;stroke-linecap:round;stroke-linejoin:miter;stroke-dasharray:none;stroke-opacity:1" transform="translate(-12.624 -91.95)"/><path d="M105.331 134.478h12.914c7.72-.015 10.882-7.433 21.55-7.42h22.364m-56.828-2.797h11.044c5.61-.01 9.992-2.319 24.272-2.302h21.512" style="fill:none;stroke:#ff1690;stroke-width:.79375;stroke-linecap:round;stroke-linejoin:miter;stroke-dasharray:none;stroke-opacity:1" transform="translate(-12.624 -91.95)"/><path d="M105.331 129.667h12.748c5.61-.01 10.734-5.172 20.191-5.172h23.889m-56.828-24.185h14.423c10.63.02 9.208 9.527 20.942 9.513h21.463" style="fill:none;stroke:#ff1690;stroke-width:.79375;stroke-linecap:round;stroke-linejoin:miter;stroke-dasharray:none;stroke-opacity:1" transform="translate(-12.624 -91.95)"/><path d="M105.331 104.755h12.914c7.72.014 10.882 7.433 21.55 7.42h22.364m-56.828 2.797h11.044c5.61.01 9.992 2.318 24.272 2.301h21.512" style="fill:none;stroke:#ff1690;stroke-width:.79375;stroke-linecap:round;stroke-linejoin:miter;stroke-dasharray:none;stroke-opacity:1" transform="translate(-12.624 -91.95)"/><path d="M105.331 109.565h12.748c5.61.01 10.734 5.173 20.191 5.173h23.889" style="fill:none;stroke:#ff1690;stroke-width:.79375;stroke-linecap:round;stroke-linejoin:miter;stroke-dasharray:none;stroke-opacity:1" transform="translate(-12.624 -91.95)"/></svg>