<?xml version="1.0" encoding="UTF-8" standalone="no"?>
<!-- Created with Inkscape (http://www.inkscape.org/) -->

<svg
   width="157.02573mm"
   height="56.466618mm"
   viewBox="0 0 157.02573 56.466618"
   version="1.1"
   id="svg1"
   xml:space="preserve"
   inkscape:version="1.3 (0e150ed6c4, 2023-07-21)"
   sodipodi:docname="forcelines.svg"
   xmlns:inkscape="http://www.inkscape.org/namespaces/inkscape"
   xmlns:sodipodi="http://sodipodi.sourceforge.net/DTD/sodipodi-0.dtd"
   xmlns="http://www.w3.org/2000/svg"
   xmlns:svg="http://www.w3.org/2000/svg"><sodipodi:namedview
     id="namedview1"
     pagecolor="#ffffff"
     bordercolor="#666666"
     borderopacity="1.0"
     inkscape:showpageshadow="2"
     inkscape:pageopacity="0.0"
     inkscape:pagecheckerboard="0"
     inkscape:deskcolor="#d1d1d1"
     inkscape:document-units="mm"
     inkscape:zoom="1.4075477"
     inkscape:cx="281.34038"
     inkscape:cy="123.61926"
     inkscape:window-width="1920"
     inkscape:window-height="987"
     inkscape:window-x="0"
     inkscape:window-y="28"
     inkscape:window-maximized="1"
     inkscape:current-layer="layer1" /><defs
     id="defs1" /><g
     inkscape:label="Ebene 1"
     inkscape:groupmode="layer"
     id="layer1"
     transform="translate(-12.624177,-91.949959)"><rect
       style="fill:#ffffff;fill-opacity:1;stroke:none;stroke-width:0.659146;stroke-linecap:round;stroke-linejoin:miter;stroke-dasharray:none;stroke-opacity:1"
       id="rect24"
       width="157.02573"
       height="56.466618"
       x="12.624177"
       y="91.949959" /><path
       id="rect1"
       style="fill:#dddddd;fill-opacity:1;stroke:#000000;stroke-width:0.79375;stroke-linecap:round;stroke-linejoin:miter;stroke-dasharray:none;stroke-opacity:1"
       d="m 18.787484,97.833305 v 43.605605 h 26.333793 v -9.34258 H 79.18018 V 107.17589 H 45.121277 v -9.342585 z" /><path
       id="path2"
       style="fill:#dddddd;fill-opacity:1;stroke:#000000;stroke-width:0.79375;stroke-linecap:round;stroke-linejoin:miter;stroke-dasharray:none;stroke-opacity:1"
       d="m 103.50418,97.833305 v 43.605605 h 26.3338 c 0,0 0.0118,-9.36722 9.38067,-9.34258 h 24.67823 v -24.92044 h -24.67823 c -10.22182,-0.18493 -9.38067,-9.342585 -9.38067,-9.342585 z"
       sodipodi:nodetypes="ccccccccc" /><path
       style="fill:none;stroke:#ff1690;stroke-width:0.79375;stroke-linecap:round;stroke-linejoin:miter;stroke-dasharray:none;stroke-opacity:1"
       d="M 20.717322,119.63611 H 77.544691"
       id="path3" /><path
       style="fill:none;stroke:#ff1690;stroke-width:0.79375;stroke-linecap:round;stroke-linejoin:miter;stroke-dasharray:none;stroke-opacity:1"
       d="m 20.717322,138.92199 h 20.004757 c 5.609642,-0.0104 0.134573,-9.51976 6.62927,-9.51203 h 30.193342"
       id="path4"
       sodipodi:nodetypes="cccc" /><path
       style="fill:none;stroke:#ff1690;stroke-width:0.79375;stroke-linecap:round;stroke-linejoin:miter;stroke-dasharray:none;stroke-opacity:1"
       d="m 20.717322,134.47778 h 17.855086 c 5.609642,-0.0104 3.120335,-7.42776 9.615032,-7.42003 h 29.357251"
       id="path5"
       sodipodi:nodetypes="cccc" /><path
       style="fill:none;stroke:#ff1690;stroke-width:0.79375;stroke-linecap:round;stroke-linejoin:miter;stroke-dasharray:none;stroke-opacity:1"
       d="m 20.717322,124.2612 h 18.130009 c 5.609642,-0.0104 6.65794,-2.30964 13.152637,-2.30191 h 25.544723"
       id="path6"
       sodipodi:nodetypes="cccc" /><path
       style="fill:none;stroke:#ff1690;stroke-width:0.79375;stroke-linecap:round;stroke-linejoin:miter;stroke-dasharray:none;stroke-opacity:1"
       d="m 20.717322,129.66749 h 16.987716 c 5.609642,-0.0104 5.175138,-5.18028 11.669835,-5.17255 h 28.169818"
       id="path7"
       sodipodi:nodetypes="cccc" /><path
       style="fill:none;stroke:#ff1690;stroke-width:0.79375;stroke-linecap:round;stroke-linejoin:miter;stroke-dasharray:none;stroke-opacity:1"
       d="m 20.717322,100.35022 h 20.004757 c 5.609642,0.0104 0.134573,9.51976 6.62927,9.51203 h 30.193342"
       id="path8"
       sodipodi:nodetypes="cccc" /><path
       style="fill:none;stroke:#ff1690;stroke-width:0.79375;stroke-linecap:round;stroke-linejoin:miter;stroke-dasharray:none;stroke-opacity:1"
       d="m 20.717322,104.79443 h 17.855086 c 5.609642,0.0104 3.120335,7.42776 9.615032,7.42003 h 29.357251"
       id="path9"
       sodipodi:nodetypes="cccc" /><path
       style="fill:none;stroke:#ff1690;stroke-width:0.79375;stroke-linecap:round;stroke-linejoin:miter;stroke-dasharray:none;stroke-opacity:1"
       d="m 20.717322,115.01101 h 18.130009 c 5.609642,0.0104 6.65794,2.30964 13.152637,2.30191 h 25.544723"
       id="path10"
       sodipodi:nodetypes="cccc" /><path
       style="fill:none;stroke:#ff1690;stroke-width:0.79375;stroke-linecap:round;stroke-linejoin:miter;stroke-dasharray:none;stroke-opacity:1"
       d="m 20.717322,109.60472 h 16.987716 c 5.609642,0.0104 5.175138,5.18028 11.669835,5.17255 h 28.169818"
       id="path11"
       sodipodi:nodetypes="cccc" /><path
       style="fill:none;stroke:#ff1690;stroke-width:0.79375;stroke-linecap:round;stroke-linejoin:miter;stroke-dasharray:none;stroke-opacity:1"
       d="m 105.33117,119.61639 h 56.82736"
       id="path12" /><path
       style="fill:none;stroke:#ff1690;stroke-width:0.79375;stroke-linecap:round;stroke-linejoin:miter;stroke-dasharray:none;stroke-opacity:1"
       d="m 105.33117,138.92199 h 14.42247 c 10.63028,-0.0197 9.20837,-9.526 20.94283,-9.51203 h 21.46206"
       id="path13"
       sodipodi:nodetypes="cccc" /><path
       style="fill:none;stroke:#ff1690;stroke-width:0.79375;stroke-linecap:round;stroke-linejoin:miter;stroke-dasharray:none;stroke-opacity:1"
       d="m 105.33117,134.47778 h 12.914 c 7.71999,-0.0143 10.88171,-7.43273 21.55047,-7.42003 h 22.36289"
       id="path14"
       sodipodi:nodetypes="cccc" /><path
       style="fill:none;stroke:#ff1690;stroke-width:0.79375;stroke-linecap:round;stroke-linejoin:miter;stroke-dasharray:none;stroke-opacity:1"
       d="m 105.33117,124.2612 h 11.04356 c 5.60965,-0.0104 9.99196,-2.3189 24.2719,-2.30191 h 21.5119"
       id="path15"
       sodipodi:nodetypes="cccc" /><path
       style="fill:none;stroke:#ff1690;stroke-width:0.79375;stroke-linecap:round;stroke-linejoin:miter;stroke-dasharray:none;stroke-opacity:1"
       d="m 105.33117,129.66749 h 12.74797 c 5.60964,-0.0104 10.73403,-5.17255 20.19094,-5.17255 h 23.88845"
       id="path16"
       sodipodi:nodetypes="cccc" /><path
       style="fill:none;stroke:#ff1690;stroke-width:0.79375;stroke-linecap:round;stroke-linejoin:miter;stroke-dasharray:none;stroke-opacity:1"
       d="m 105.33117,100.31079 h 14.42247 c 10.63028,0.0197 9.20837,9.526 20.94283,9.51203 h 21.46206"
       id="path20"
       sodipodi:nodetypes="cccc" /><path
       style="fill:none;stroke:#ff1690;stroke-width:0.79375;stroke-linecap:round;stroke-linejoin:miter;stroke-dasharray:none;stroke-opacity:1"
       d="m 105.33117,104.755 h 12.914 c 7.71999,0.0143 10.88171,7.43273 21.55047,7.42003 h 22.36289"
       id="path21"
       sodipodi:nodetypes="cccc" /><path
       style="fill:none;stroke:#ff1690;stroke-width:0.79375;stroke-linecap:round;stroke-linejoin:miter;stroke-dasharray:none;stroke-opacity:1"
       d="m 105.33117,114.97158 h 11.04356 c 5.60965,0.0104 9.99196,2.3189 24.2719,2.30191 h 21.5119"
       id="path22"
       sodipodi:nodetypes="cccc" /><path
       style="fill:none;stroke:#ff1690;stroke-width:0.79375;stroke-linecap:round;stroke-linejoin:miter;stroke-dasharray:none;stroke-opacity:1"
       d="m 105.33117,109.56529 h 12.74797 c 5.60964,0.0104 10.73403,5.17255 20.19094,5.17255 h 23.88845"
       id="path23"
       sodipodi:nodetypes="cccc" /></g></svg>
